<?xml version="1.0" encoding="UTF-8"?>
<svg version="1.1" xmlns="http://www.w3.org/2000/svg" width="962" height="646">
<path d="M0 0 C317.46 0 634.92 0 962 0 C962 213.18 962 426.36 962 646 C644.54 646 327.08 646 0 646 C0 432.82 0 219.64 0 0 Z " fill="#353535" transform="translate(0,0)"/>
<path d="M0 0 C0.89093701 0.00377932 1.78187403 0.00755865 2.69980913 0.0114525 C3.64270188 0.00762695 4.58559463 0.0038014 5.55705988 -0.00014007 C8.73621417 -0.01051016 11.9151892 -0.00647034 15.09435564 -0.0025093 C17.36561793 -0.00685355 19.63687876 -0.01203573 21.90813738 -0.01799697 C28.09192388 -0.03142898 34.27564943 -0.03196098 40.45944768 -0.02943367 C45.6138411 -0.0283668 50.76822203 -0.03324 55.92261279 -0.03803909 C68.77421771 -0.0497848 81.62577868 -0.04890089 94.47738422 -0.04248228 C105.64618964 -0.0373125 116.81490786 -0.04856845 127.98369604 -0.0675805 C139.44324222 -0.08693841 150.90273104 -0.09492674 162.3622967 -0.09145725 C168.79940085 -0.0896398 175.23642513 -0.09232642 181.67351633 -0.10617179 C187.7251917 -0.1187002 193.77669192 -0.11685346 199.82836443 -0.1037609 C202.05404823 -0.10138466 204.27974417 -0.10416697 206.50541407 -0.11238402 C209.53477436 -0.12276484 212.56353746 -0.11482083 215.59287554 -0.10207289 C216.48158183 -0.10944718 217.37028813 -0.11682146 218.28592491 -0.12441921 C224.2777581 -0.07107083 224.2777581 -0.07107083 226.43461162 1.64222634 C228.27564898 3.99534374 228.08456246 5.7362038 228.08405596 8.69988328 C228.09107027 9.82716844 228.09808459 10.95445359 228.10531145 12.11589891 C228.09766772 13.35339891 228.09002398 14.59089891 228.08214861 15.86589891 C228.08579928 17.16849656 228.08944994 18.47109422 228.09321123 19.81316453 C228.10262507 23.3875528 228.09319086 26.96166748 228.07987911 30.53603441 C228.06857194 34.27424492 228.07267154 38.01244183 228.07462603 41.75066453 C228.07550924 48.02870486 228.06442303 54.30663725 228.0460158 60.58464891 C228.02484772 67.84591626 228.02133812 75.10702547 228.02757776 82.36831743 C228.03326991 89.3495475 228.02762752 96.3307218 228.01640421 103.31194383 C228.01175625 106.28477332 228.01088522 109.25756872 228.01299006 112.23040086 C228.01522119 116.37981803 228.00077308 120.52901313 227.98449236 124.67839891 C227.98696978 125.91589891 227.9894472 127.15339891 227.99199969 128.42839891 C227.98491488 129.55568406 227.97783007 130.68296922 227.97053057 131.84441453 C227.96745126 133.3166649 227.96745126 133.3166649 227.96430975 134.8186577 C227.70983416 137.27214891 227.70983416 137.27214891 225.70983416 140.27214891 C222.63231393 140.57062649 219.75551456 140.67173655 216.67516619 140.64637071 C215.72748432 140.65034512 214.77980246 140.65431952 213.80340296 140.65841436 C210.6080011 140.66808687 207.41303653 140.65618934 204.21764666 140.64446336 C201.93490978 140.64688969 199.65217396 140.65060746 197.36944109 140.65552598 C191.15469105 140.66496034 184.94009781 140.65548817 178.72535998 140.64219385 C172.23467002 140.63090976 165.74398813 140.6349845 159.25329119 140.63694078 C148.35140901 140.63782472 137.44959023 140.62679287 126.54772478 140.60833055 C115.32244529 140.58932542 104.09723796 140.58224271 92.87194353 140.58782274 C79.35725638 140.5945209 65.84262195 140.59124217 52.32793719 140.57871896 C47.16049138 140.57406327 41.99306519 140.5732033 36.82561785 140.57530481 C30.74523966 140.57718261 24.6649546 140.56912305 18.58459765 140.55324441 C16.34721041 140.54898649 14.10981375 140.54816105 11.87242419 140.55093461 C8.82967982 140.55413539 5.78721747 140.54512797 2.74450213 140.53284532 C1.84899204 140.53662464 0.95348196 140.54040397 0.03083521 140.54429781 C-6.06183713 140.50047762 -6.06183713 140.50047762 -8.29016584 138.27214891 C-8.54184812 135.90767747 -8.54184812 135.90767747 -8.54413313 132.88201219 C-8.5525926 131.16573625 -8.5525926 131.16573625 -8.56122297 129.41478807 C-8.55717451 128.15342027 -8.55312605 126.89205247 -8.5489549 125.59246141 C-8.55166387 124.25552506 -8.55522427 122.9185902 -8.55957502 121.58165818 C-8.5687126 117.94535762 -8.56514919 114.30917021 -8.55881685 110.6728676 C-8.55376391 106.87278762 -8.55844633 103.07271753 -8.56158918 99.27263719 C-8.56523089 92.89029522 -8.56042437 86.50799949 -8.55090803 80.12566453 C-8.54002307 72.74000481 -8.5435485 65.3544555 -8.55456084 57.96879846 C-8.56362789 51.63501171 -8.56492185 45.30125827 -8.5596835 38.96746713 C-8.55656058 35.18133434 -8.55616323 31.39525349 -8.56275648 27.609124 C-8.56852089 24.05015453 -8.5645498 20.49132782 -8.55296797 16.93237382 C-8.54904862 14.99808781 -8.55501474 13.06378977 -8.56122297 11.12950975 C-8.55558332 9.98532579 -8.54994367 8.84114183 -8.54413313 7.66228563 C-8.54337908 6.66381608 -8.54262502 5.66534654 -8.54184812 4.63662034 C-7.98277033 -0.61572986 -4.43693234 0.03207383 0 0 Z " fill="#61C0BE" transform="translate(374.29016584157944,139.7278510928154)"/>
<path d="M0 0 C0.89093701 0.00377932 1.78187403 0.00755865 2.69980913 0.0114525 C3.64270188 0.00762695 4.58559463 0.0038014 5.55705988 -0.00014007 C8.73621417 -0.01051016 11.9151892 -0.00647034 15.09435564 -0.0025093 C17.36561793 -0.00685355 19.63687876 -0.01203573 21.90813738 -0.01799697 C28.09192388 -0.03142898 34.27564943 -0.03196098 40.45944768 -0.02943367 C45.6138411 -0.0283668 50.76822203 -0.03324 55.92261279 -0.03803909 C68.77421771 -0.0497848 81.62577868 -0.04890089 94.47738422 -0.04248228 C105.64618964 -0.0373125 116.81490786 -0.04856845 127.98369604 -0.0675805 C139.44324222 -0.08693841 150.90273104 -0.09492674 162.3622967 -0.09145725 C168.79940085 -0.0896398 175.23642513 -0.09232642 181.67351633 -0.10617179 C187.7251917 -0.1187002 193.77669192 -0.11685346 199.82836443 -0.1037609 C202.05404823 -0.10138466 204.27974417 -0.10416697 206.50541407 -0.11238402 C209.53477436 -0.12276484 212.56353746 -0.11482083 215.59287554 -0.10207289 C216.48158183 -0.10944718 217.37028813 -0.11682146 218.28592491 -0.12441921 C224.2777581 -0.07107083 224.2777581 -0.07107083 226.43461162 1.64222634 C228.27564898 3.99534374 228.08456246 5.7362038 228.08405596 8.69988328 C228.09107027 9.82716844 228.09808459 10.95445359 228.10531145 12.11589891 C228.09766772 13.35339891 228.09002398 14.59089891 228.08214861 15.86589891 C228.08579928 17.16849656 228.08944994 18.47109422 228.09321123 19.81316453 C228.10262507 23.3875528 228.09319086 26.96166748 228.07987911 30.53603441 C228.06857194 34.27424492 228.07267154 38.01244183 228.07462603 41.75066453 C228.07550924 48.02870486 228.06442303 54.30663725 228.0460158 60.58464891 C228.02484772 67.84591626 228.02133812 75.10702547 228.02757776 82.36831743 C228.03326991 89.3495475 228.02762752 96.3307218 228.01640421 103.31194383 C228.01175625 106.28477332 228.01088522 109.25756872 228.01299006 112.23040086 C228.01522119 116.37981803 228.00077308 120.52901313 227.98449236 124.67839891 C227.98696978 125.91589891 227.9894472 127.15339891 227.99199969 128.42839891 C227.98491488 129.55568406 227.97783007 130.68296922 227.97053057 131.84441453 C227.96745126 133.3166649 227.96745126 133.3166649 227.96430975 134.8186577 C227.70983416 137.27214891 227.70983416 137.27214891 225.70983416 140.27214891 C222.63231393 140.57062649 219.75551456 140.67173655 216.67516619 140.64637071 C215.72748432 140.65034512 214.77980246 140.65431952 213.80340296 140.65841436 C210.6080011 140.66808687 207.41303653 140.65618934 204.21764666 140.64446336 C201.93490978 140.64688969 199.65217396 140.65060746 197.36944109 140.65552598 C191.15469105 140.66496034 184.94009781 140.65548817 178.72535998 140.64219385 C172.23467002 140.63090976 165.74398813 140.6349845 159.25329119 140.63694078 C148.35140901 140.63782472 137.44959023 140.62679287 126.54772478 140.60833055 C115.32244529 140.58932542 104.09723796 140.58224271 92.87194353 140.58782274 C79.35725638 140.5945209 65.84262195 140.59124217 52.32793719 140.57871896 C47.16049138 140.57406327 41.99306519 140.5732033 36.82561785 140.57530481 C30.74523966 140.57718261 24.6649546 140.56912305 18.58459765 140.55324441 C16.34721041 140.54898649 14.10981375 140.54816105 11.87242419 140.55093461 C8.82967982 140.55413539 5.78721747 140.54512797 2.74450213 140.53284532 C1.84899204 140.53662464 0.95348196 140.54040397 0.03083521 140.54429781 C-6.06183713 140.50047762 -6.06183713 140.50047762 -8.29016584 138.27214891 C-8.54184812 135.90767747 -8.54184812 135.90767747 -8.54413313 132.88201219 C-8.5525926 131.16573625 -8.5525926 131.16573625 -8.56122297 129.41478807 C-8.55717451 128.15342027 -8.55312605 126.89205247 -8.5489549 125.59246141 C-8.55166387 124.25552506 -8.55522427 122.9185902 -8.55957502 121.58165818 C-8.5687126 117.94535762 -8.56514919 114.30917021 -8.55881685 110.6728676 C-8.55376391 106.87278762 -8.55844633 103.07271753 -8.56158918 99.27263719 C-8.56523089 92.89029522 -8.56042437 86.50799949 -8.55090803 80.12566453 C-8.54002307 72.74000481 -8.5435485 65.3544555 -8.55456084 57.96879846 C-8.56362789 51.63501171 -8.56492185 45.30125827 -8.5596835 38.96746713 C-8.55656058 35.18133434 -8.55616323 31.39525349 -8.56275648 27.609124 C-8.56852089 24.05015453 -8.5645498 20.49132782 -8.55296797 16.93237382 C-8.54904862 14.99808781 -8.55501474 13.06378977 -8.56122297 11.12950975 C-8.55558332 9.98532579 -8.54994367 8.84114183 -8.54413313 7.66228563 C-8.54337908 6.66381608 -8.54262502 5.66534654 -8.54184812 4.63662034 C-7.98277033 -0.61572986 -4.43693234 0.03207383 0 0 Z M0.70983416 11.27214891 C0.25763257 13.43304138 0.25763257 13.43304138 0.33561236 15.97893602 C0.32859804 16.9716652 0.32158373 17.96439439 0.31435686 18.98720628 C0.3220006 20.08026078 0.32964434 21.17331529 0.33751971 22.29949266 C0.33386904 23.44749345 0.33021837 24.59549424 0.32645708 25.77828294 C0.31832339 29.5888868 0.33198548 33.39906918 0.34655291 37.20964891 C0.34707117 39.84758836 0.34655478 42.4855282 0.34504229 45.12346727 C0.34415879 50.65843099 0.35525133 56.19327237 0.37365252 61.72820359 C0.39482108 68.13230775 0.39833039 74.53623261 0.39209056 80.94036466 C0.3864007 87.09453512 0.39214196 93.24863214 0.40326411 99.40279466 C0.40712438 102.02476065 0.40826092 104.64673206 0.40667826 107.26870042 C0.40630907 110.92750796 0.41888703 114.58603899 0.43517596 118.24480516 C0.43269854 119.33785966 0.43022112 120.43091417 0.42766863 121.55709153 C0.43475344 122.54982072 0.44183825 123.54254991 0.44913775 124.5653618 C0.45119062 125.43109315 0.45324349 126.29682451 0.45535856 127.18879014 C0.5196389 129.49272465 0.5196389 129.49272465 2.70983416 131.27214891 C5.52829076 131.46779762 8.24836914 131.53694108 11.06788164 131.51938707 C12.38020688 131.52300869 12.38020688 131.52300869 13.71904373 131.52670348 C16.66795275 131.53236582 19.61664757 131.52365832 22.56554705 131.51506883 C24.67256771 131.51614108 26.77958808 131.5180789 28.88660723 131.52082139 C34.62193916 131.52568177 40.35719367 131.51799944 46.09251624 131.50786835 C52.08185229 131.49910835 58.07118576 131.50084489 64.06052691 131.50122911 C74.11917968 131.5002916 84.17780234 131.49159562 94.23644549 131.47795945 C105.88351043 131.46222876 117.53054239 131.45696145 129.17761719 131.45769501 C140.36037764 131.45830433 151.54312729 131.45320796 162.7258845 131.44490319 C167.49502623 131.44136291 172.26416415 131.43953889 177.03330714 131.43900949 C182.64335192 131.43800851 188.25336876 131.4319321 193.86340433 131.42184335 C195.92867016 131.41891053 197.9939392 131.41769455 200.05920702 131.41827089 C202.8657583 131.41875791 205.67223006 131.41314234 208.47877032 131.40586168 C209.7213491 131.40818458 209.7213491 131.40818458 210.98903048 131.41055441 C214.64973024 131.74216112 214.64973024 131.74216112 217.70983416 130.27214891 C217.81001679 128.73326339 217.84059006 127.18979266 217.84354693 125.64765245 C217.84781191 124.64788377 217.8520769 123.64811509 217.85647112 122.6180504 C217.85601794 121.51204988 217.85556475 120.40604936 217.85509783 119.26653367 C217.85845644 118.10892534 217.86181505 116.951317 217.86527544 115.75862962 C217.87481871 111.91026072 217.87673022 108.06193517 217.87780291 104.21355516 C217.8802025 102.22386314 217.88260358 100.23417111 217.88526332 98.24447942 C217.89341528 91.98441224 217.89584689 85.72435945 217.89513689 79.46428758 C217.89453593 72.99830387 217.90508962 66.53240354 217.92088056 60.06644094 C217.93393928 54.52248236 217.93932149 48.97855108 217.93868148 43.43457723 C217.938426 40.12013678 217.9422166 36.80578735 217.95185953 33.49135858 C217.96160248 29.7965539 217.95880399 26.10196648 217.95275408 22.40715867 C217.95837359 21.30318238 217.96399309 20.1992061 217.96978289 19.06177598 C217.9655884 18.05918748 217.96139391 17.05659898 217.95707232 16.02362901 C217.95761708 15.14922449 217.95816185 14.27481998 217.95872313 13.37391835 C217.90382493 11.05344186 217.90382493 11.05344186 215.70983416 9.27214891 C212.92095838 9.07434951 210.23127373 9.00294571 207.44117266 9.01818162 C206.57586741 9.01506164 205.71056215 9.01194166 204.81903553 9.00872713 C201.90244002 9.00071233 198.98605057 9.0070843 196.0694533 9.01335984 C193.98538121 9.01065151 191.90131008 9.00709147 189.81724077 9.00273973 C184.14376127 8.99359418 178.47035422 8.99716903 172.79687339 9.0034979 C166.86986327 9.00854738 160.94285952 9.00386932 155.01584917 9.00072557 C145.05974751 8.99708256 135.10367547 9.00189348 125.1475783 9.01140672 C113.62550488 9.02228891 102.10350225 9.01876873 90.58143055 9.00775391 C80.70286268 8.99868699 70.82431616 8.99739293 60.94574547 9.00263125 C55.03962832 9.00575461 49.13354448 9.00615032 43.22742945 8.99955827 C37.67481131 8.9937942 32.12228468 8.99776449 26.56967646 9.00934678 C24.52782633 9.01199853 22.48596854 9.01121956 20.44412142 9.00682145 C17.66446894 9.00138476 14.88511273 9.00817729 12.1054793 9.01818162 C11.29070103 9.01372018 10.47592275 9.00925874 9.63645422 9.0046621 C5.7961674 9.03161106 3.98243142 9.0904174 0.70983416 11.27214891 Z " fill="#60BDBB" transform="translate(374.29016584157944,139.7278510928154)"/>
<path d="M0 0 C1.093125 0.556875 2.18625 1.11375 3.3125 1.6875 C12.41301288 9.51817388 16.94926568 20.77251204 18.28662109 32.51708984 C19.31253809 46.38118228 18.07376575 60.54579821 9.6875 72.125 C1.77243654 81.02309061 -7.17607722 85.35373526 -19.125 86.453125 C-30.27177523 87.08021838 -39.47663916 84.67730711 -48.6640625 78.08984375 C-56.85820428 70.75896439 -61.42777407 60.51142726 -62.16113281 49.60327148 C-62.42961649 33.73307628 -62.65999391 17.68151051 -51.30078125 5.12109375 C-37.41415113 -7.33006449 -16.12307395 -9.23241129 0 0 Z " fill="#FAFAFA" transform="translate(280,370)"/>
<path d="M0 0 C1.30029786 -0.00467997 1.30029786 -0.00467997 2.62686437 -0.00945449 C5.54268805 -0.01745618 8.45830488 -0.01110242 11.37413025 -0.00482178 C13.45997236 -0.00753065 15.5458135 -0.011091 17.63165283 -0.01544189 C23.305006 -0.02457987 28.97828665 -0.02101598 34.65164113 -0.01468372 C40.57911329 -0.00963169 46.50657911 -0.01431289 52.43405151 -0.01745605 C62.388373 -0.02109774 72.34266483 -0.01629098 82.29698181 -0.0067749 C93.81966402 0.00411301 105.34227547 0.00058242 116.86495596 -0.01042771 C126.74437761 -0.01949125 136.62377791 -0.02079054 146.50320238 -0.01555037 C152.40983169 -0.01242591 158.31642769 -0.01203441 164.22305489 -0.01862335 C169.77404165 -0.02438274 175.3249368 -0.02042582 180.87591362 -0.00883484 C182.91818464 -0.00618082 184.96046331 -0.00696589 187.00273132 -0.01136017 C189.78049093 -0.01678785 192.55795295 -0.01001554 195.33569336 0 C196.15270236 -0.00446144 196.96971135 -0.00892289 197.8114782 -0.01351953 C203.37605459 0.02566702 203.37605459 0.02566702 205.60435486 2.25396729 C205.85324383 4.35573673 205.85324383 4.35573673 205.85159302 7.00544739 C205.85578751 8.00803589 205.85998199 9.01062439 205.86430359 10.04359436 C205.85868408 11.14757065 205.85306458 12.25154694 205.84727478 13.38897705 C205.84917313 14.54833771 205.85107147 15.70769836 205.85302734 16.90219116 C205.85674439 20.74998652 205.84601825 24.59759484 205.83482361 28.44537354 C205.8336323 31.10813172 205.83312766 33.77088195 205.83343506 36.43363953 C205.832498 42.01985012 205.8238078 47.60600645 205.81016541 53.19219971 C205.79443175 59.65877128 205.78916754 66.12528342 205.78990096 72.59187275 C205.79051043 78.80369301 205.78541287 85.01549384 205.77710915 91.22730827 C205.77391573 93.87522196 205.77195351 96.52313742 205.77121544 99.17105293 C205.76905945 102.8635168 205.76033157 106.55590442 205.74961853 110.24835205 C205.75007172 111.35435257 205.7505249 112.46035309 205.75099182 113.59986877 C205.74672684 114.59963745 205.74246185 115.59940613 205.73806763 116.62947083 C205.73639178 117.50349832 205.73471594 118.37752581 205.73298931 119.27803898 C205.60435486 121.25396729 205.60435486 121.25396729 204.60435486 122.25396729 C201.85255225 122.35628513 199.12569868 122.39282546 196.37329102 122.38768005 C195.06330577 122.39107839 195.06330577 122.39107839 193.72685617 122.39454538 C190.77723647 122.40091567 187.82766235 122.40005408 184.8780365 122.39923096 C182.77278585 122.40222056 180.66753575 122.40562262 178.56228638 122.40940857 C172.82685411 122.41827288 167.09143674 122.42058769 161.35599828 122.42122436 C156.57684878 122.42217138 151.79770278 122.42584726 147.01855463 122.42939645 C135.74840617 122.43755019 124.4782657 122.43997984 113.20811462 122.43927002 C101.56164686 122.43866892 89.91522537 122.44922497 78.26876932 122.46501368 C68.28748196 122.47806546 58.30620976 122.48345492 48.32491392 122.48281461 C42.35565183 122.48255893 36.38643083 122.48544835 30.4171772 122.49599266 C24.80548739 122.50563405 19.1938783 122.50578021 13.58218575 122.49847603 C11.51733788 122.49742524 9.45248509 122.49982207 7.38764572 122.50583649 C4.57913459 122.51349 1.77090685 122.50895607 -1.03759766 122.50120544 C-1.86375279 122.50634901 -2.68990792 122.51149257 -3.54109806 122.516792 C-9.16737395 122.48223848 -9.16737395 122.48223848 -11.39564514 120.25396729 C-11.65012074 118.17060852 -11.65012074 118.17060852 -11.65634155 115.54718018 C-11.66342636 114.55445099 -11.67051117 113.5617218 -11.67781067 112.53890991 C-11.67533325 111.44585541 -11.67285583 110.3528009 -11.67030334 109.22662354 C-11.67796974 107.50462234 -11.67796974 107.50462234 -11.68579102 105.74783325 C-11.69973868 101.93732552 -11.69872648 98.12699757 -11.69642639 94.31646729 C-11.70031019 91.67852714 -11.70464419 89.04058762 -11.70941162 86.40264893 C-11.71763117 80.86772048 -11.7167119 75.33284306 -11.71131897 69.7979126 C-11.70527526 63.39377326 -11.71759824 56.98985341 -11.73888904 50.58575153 C-11.75859901 44.43158344 -11.76168248 38.27751834 -11.75815392 32.12332153 C-11.75866904 29.5013477 -11.76394239 26.8793705 -11.77396584 24.25741577 C-11.7862367 20.59853972 -11.77959486 16.94017821 -11.76795959 13.28131104 C-11.77560333 12.18825653 -11.78324707 11.09520203 -11.79112244 9.96902466 C-11.78410812 8.97629547 -11.77709381 7.98356628 -11.76986694 6.96075439 C-11.77003469 6.09502304 -11.77020243 5.22929169 -11.77037525 4.33732605 C-11.64671432 3.64981766 -11.52305338 2.96230927 -11.39564514 2.25396729 C-7.55963866 -0.30337037 -4.44570641 -0.02434315 0 0 Z M-2.39564514 9.25396729 C-2.39564514 43.57396729 -2.39564514 77.89396729 -2.39564514 113.25396729 C63.60435486 113.25396729 129.60435486 113.25396729 197.60435486 113.25396729 C197.60435486 78.93396729 197.60435486 44.61396729 197.60435486 9.25396729 C131.60435486 9.25396729 65.60435486 9.25396729 -2.39564514 9.25396729 Z " fill="#3A3C3C" transform="translate(386.39564514160156,148.74603271484375)"/>
<path d="M0 0 C4.62 0 9.24 0 14 0 C14.01417969 1.05574219 14.02835937 2.11148437 14.04296875 3.19921875 C14.68929198 27.42385726 22.92055152 49.22487999 33 71 C40.4078303 47.77636725 47.2169433 24.53577668 48 0 C52.95 0 57.9 0 63 0 C63.11214844 2.02640625 63.22429687 4.0528125 63.33984375 6.140625 C63.87044741 13.48971633 65.03645796 20.54831876 66.5625 27.75 C66.81990967 28.98266602 67.07731934 30.21533203 67.3425293 31.48535156 C70.53420192 52.0193929 70.53420192 52.0193929 79 70 C89.20876574 46.7419593 96.69612656 25.71874263 97 0 C101.62 0 106.24 0 111 0 C112.03160349 29.05683161 103.12112508 51.90319343 91.25512695 78.06665039 C89.71671015 81.66207499 88.37314876 85.33826997 87 89 C80.73 89 74.46 89 68 89 C67.38511719 86.87820313 66.77023437 84.75640625 66.13671875 82.5703125 C65.53111651 80.48173872 64.92535557 78.39321103 64.31958008 76.3046875 C63.90339908 74.86951409 63.48737926 73.43429393 63.0715332 71.99902344 C60.75047029 63.98842363 58.42036579 55.98131549 56 48 C53.86464742 52.79351439 52.08328726 57.59050289 50.5546875 62.61328125 C50.33934357 63.30890671 50.12399963 64.00453217 49.90213013 64.72123718 C49.22284027 66.91723942 48.54859513 69.11474498 47.875 71.3125 C47.19353229 73.52787122 46.51096967 75.74289209 45.82644653 77.95732117 C45.40268732 79.32896495 44.98080319 80.70118976 44.56100464 82.0740509 C43.11152169 86.77695662 43.11152169 86.77695662 42 89 C36.06 89 30.12 89 24 89 C21.098406 82.07898479 18.21118579 75.15225216 15.33837891 68.21923828 C14.14514071 65.34911081 12.9391944 62.48471895 11.73046875 59.62109375 C4.9063309 43.25818208 -0.23910181 26.92645282 -0.0625 9.0625 C-0.05573242 7.75055664 -0.05573242 7.75055664 -0.04882812 6.41210938 C-0.03714834 4.27470953 -0.01921689 2.13734537 0 0 Z " fill="#FCFCFC" transform="translate(369,366)"/>
<path d="M0 0 C7.26 0 14.52 0 22 0 C25.26240268 11.30804298 28.52257527 22.61672225 31.77878571 33.92654991 C33.2907341 39.17767675 34.80367243 44.42851419 36.31884766 49.67871094 C37.78002811 54.74194675 39.23864145 59.8059155 40.69544983 64.87041092 C41.25273058 66.80604205 41.81094835 68.74140365 42.37010193 70.6764946 C43.15088231 73.37917043 43.92837692 76.08277063 44.70507812 78.78662109 C44.93884659 79.59294479 45.17261505 80.39926849 45.41346741 81.23002625 C47 86.77189568 47 86.77189568 47 89 C42.05 89 37.1 89 32 89 C29.69 80.75 27.38 72.5 25 64 C17.8863749 65.42272502 10.85562932 66.94861839 3.81835938 68.67578125 C0.80697723 69.40069315 -1.89017257 70 -5 70 C-5.27714844 71.12019531 -5.55429687 72.24039063 -5.83984375 73.39453125 C-6.20566667 74.86720302 -6.57155553 76.33985842 -6.9375 77.8125 C-7.11990234 78.55048828 -7.30230469 79.28847656 -7.49023438 80.04882812 C-8.2422615 83.07060984 -9.01485573 86.04456718 -10 89 C-14.95 89 -19.9 89 -25 89 C-23.65766541 81.79068104 -21.9082555 74.83677386 -19.8125 67.8125 C-19.50570313 66.77077637 -19.19890625 65.72905273 -18.8828125 64.65576172 C-17.08281255 58.56606802 -15.23388741 52.4924747 -13.36279297 46.42431641 C-13.07807129 45.50054199 -12.79334961 44.57676758 -12.5 43.625 C-12.21527832 42.70122559 -11.93055664 41.77745117 -11.63720703 40.82568359 C-8.98823626 32.13938495 -6.62238919 23.38290448 -4.30859375 14.60205078 C-4.0353125 13.56677246 -3.76203125 12.53149414 -3.48046875 11.46484375 C-3.24223389 10.553396 -3.00399902 9.64194824 -2.75854492 8.70288086 C-1.93625938 5.77287662 -0.96234497 2.8870349 0 0 Z " fill="#FAFAFA" transform="translate(504,366)"/>
<path d="M0 0 C4.62 0 9.24 0 14 0 C14 11.55 14 23.1 14 35 C26.87 35 39.74 35 53 35 C53 23.45 53 11.9 53 0 C57.29 0 61.58 0 66 0 C66 29.37 66 58.74 66 89 C61.71 89 57.42 89 53 89 C53 75.47 53 61.94 53 48 C40.13 48 27.26 48 14 48 C14 61.53 14 75.06 14 89 C9.38 89 4.76 89 0 89 C0 59.63 0 30.26 0 0 Z " fill="#FEFEFE" transform="translate(712,366)"/>
<path d="M0 0 C5.7241131 4.57929048 8.93902154 10.79545103 10 18 C10.93233701 30.58167674 10.23883328 42.20461836 3 53 C1.3515625 54.546875 1.3515625 54.546875 -0.375 55.75 C-0.93960938 56.15734375 -1.50421875 56.5646875 -2.0859375 56.984375 C-6.44278287 59.2961705 -11.10031559 59.1612395 -15.9375 59.1875 C-17.12214844 59.20167969 -18.30679688 59.21585937 -19.52734375 59.23046875 C-25.62073264 58.82607061 -30.26444068 56.82875009 -35 53 C-43.60170272 42.12346681 -43.44814532 28.25665364 -42 15 C-39.97572844 6.49767715 -35.06409841 1.70939894 -28 -3 C-18.7039142 -5.48429879 -8.19082669 -5.33803876 0 0 Z " fill="#2D2D2D" transform="translate(274,383)"/>
<path d="M0 0 C1.09332642 0.00132935 1.09332642 0.00132935 2.20874023 0.00268555 C13.33730965 0.23748561 23.82236863 3.36650686 34.125 7.375 C33.84182074 8.98068666 33.54812209 10.58452047 33.25 12.1875 C33.08757812 13.08082031 32.92515625 13.97414063 32.7578125 14.89453125 C32.125 17.375 32.125 17.375 30.125 20.375 C26.07749388 19.77325809 22.17036416 18.89624327 18.2121582 17.86352539 C9.02512527 15.50859827 -0.26644248 13.44101465 -9.5 16.625 C-13.50427935 19.57552162 -15.35189695 22.67998444 -16.875 27.375 C-17.07587708 30.24852429 -17.17913645 33.02197609 -17.17578125 35.89453125 C-17.18006638 36.71193283 -17.1843515 37.52933441 -17.18876648 38.37150574 C-17.19449487 40.09702633 -17.19502105 41.82257107 -17.19067383 43.5480957 C-17.18752278 46.16855814 -17.21095984 48.7878808 -17.23632812 51.40820312 C-17.23860238 53.09114442 -17.23930403 54.77408873 -17.23828125 56.45703125 C-17.247491 57.23125931 -17.25670074 58.00548737 -17.26618958 58.80317688 C-17.21246516 65.22070376 -16.06726904 70.87857832 -11.70703125 75.84375 C-7.97752018 77.86025805 -4.6989366 77.97448672 -0.5625 77.875 C0.22278076 77.86654053 1.00806152 77.85808105 1.81713867 77.84936523 C9.96272099 77.60822657 17.32960749 75.63466558 25.125 73.375 C26.78729813 73.02052318 28.45248844 72.67764495 30.125 72.375 C30.79760351 74.14358691 31.46288395 75.91496016 32.125 77.6875 C32.49625 78.67363281 32.8675 79.65976562 33.25 80.67578125 C34.125 83.375 34.125 83.375 34.125 86.375 C31.25105502 87.19139318 28.3759487 88.00322141 25.5 88.8125 C24.69175781 89.04259766 23.88351562 89.27269531 23.05078125 89.50976562 C15.54942454 91.6138047 8.59542451 92.57577992 0.8125 92.625 C-0.3930957 92.6559375 -0.3930957 92.6559375 -1.62304688 92.6875 C-9.88299819 92.74066139 -17.16569045 90.91960963 -23.30859375 85.17578125 C-30.21086057 77.24075631 -32.18700409 68.28631824 -32.17578125 58.07421875 C-32.18006638 57.19780228 -32.1843515 56.3213858 -32.18876648 55.41841125 C-32.19448426 53.57199971 -32.19502896 51.72556565 -32.19067383 49.87915039 C-32.18752101 47.08114395 -32.21098015 44.28420365 -32.23632812 41.48632812 C-32.31428799 19.46746309 -32.31428799 19.46746309 -24.875 10.375 C-17.38730909 3.24712948 -10.54810677 -0.02354765 0 0 Z " fill="#FAFAFA" transform="translate(661.875,363.625)"/>
<path d="M0 0 C18.81 0 37.62 0 57 0 C57 4.62 57 9.24 57 14 C49.74 14 42.48 14 35 14 C35 38.75 35 63.5 35 89 C30.38 89 25.76 89 21 89 C21 64.25 21 39.5 21 14 C14.07 14 7.14 14 0 14 C0 9.38 0 4.76 0 0 Z " fill="#FBFBFB" transform="translate(561,366)"/>
<path d="M0 0 C18.81 0 37.62 0 57 0 C57 4.62 57 9.24 57 14 C49.74 14 42.48 14 35 14 C35 38.75 35 63.5 35 89 C30.71 89 26.42 89 22 89 C22 64.25 22 39.5 22 14 C14.74 14 7.48 14 0 14 C0 9.38 0 4.76 0 0 Z " fill="#FEFEFE" transform="translate(302,366)"/>
<path d="M0 0 C4.62 0 9.24 0 14 0 C14 29.37 14 58.74 14 89 C9.38 89 4.76 89 0 89 C0 59.63 0 30.26 0 0 Z " fill="#FCFCFC" transform="translate(189,366)"/>
<path d="M0 0 C1.24329711 0.55257649 2.47057651 1.14153826 3.6875 1.75 C4.1875 3.9375 4.1875 3.9375 3.6875 6.75 C-1.04638178 10.58151581 -6.91069308 13.16912461 -12.37890625 15.7890625 C-13.12690491 16.15189331 -13.87490356 16.51472412 -14.64556885 16.8885498 C-17.05329184 18.05507381 -19.46407101 19.21511872 -21.875 20.375 C-23.54599237 21.18306856 -25.21680831 21.99150207 -26.88745117 22.80029297 C-36.86782132 27.62757151 -46.86409937 32.42175484 -56.87597656 37.18334961 C-62.80140274 40.00658253 -68.66925547 42.92907358 -74.52148438 45.90039062 C-80.23231438 48.77060053 -86.06661304 51.33323331 -91.93017578 53.8737793 C-96.27768811 55.77670682 -100.39467609 57.85429043 -104.5 60.25 C-108.75575513 62.65941214 -111.45941572 63.5760569 -116.3125 62.75 C-116.9725 62.09 -117.6325 61.43 -118.3125 60.75 C-118.3125 58.375 -118.3125 58.375 -117.3125 55.75 C-112.19241486 51.81790847 -106.38017878 49.24013103 -100.5625 46.5 C-99.03484009 45.7742981 -99.03484009 45.7742981 -97.47631836 45.03393555 C-90.58883593 41.77796619 -83.65158732 38.65341548 -76.6730957 35.59863281 C-71.12129642 33.15231061 -65.69670555 30.50059183 -60.28833008 27.75366211 C-55.42078005 25.28570231 -50.50795715 22.93258642 -45.5625 20.625 C-38.75412539 17.44408823 -32.01736191 14.14454692 -25.3125 10.75 C-22.54332245 9.35085849 -19.77202262 7.95599466 -17 6.5625 C-16.34185303 6.22927734 -15.68370605 5.89605469 -15.00561523 5.55273438 C-3.25685206 -0.35209212 -3.25685206 -0.35209212 0 0 Z " fill="#3A3C3C" transform="translate(525.3125,176.25)"/>
<path d="M0 0 C1.08239456 -0.00571014 2.16478912 -0.01142029 3.27998352 -0.01730347 C4.47275406 -0.01842133 5.6655246 -0.01953918 6.8944397 -0.02069092 C8.77255592 -0.02813828 8.77255592 -0.02813828 10.68861389 -0.03573608 C14.12875256 -0.04785818 17.56883033 -0.05530633 21.00898314 -0.05974674 C23.1575074 -0.06267629 25.30602631 -0.06678087 27.45454788 -0.07125092 C34.17466723 -0.08492751 40.89477437 -0.09459343 47.61490667 -0.09845281 C55.37629281 -0.10293447 63.13750293 -0.12048656 70.89883554 -0.1494534 C76.8954954 -0.17105843 82.8921057 -0.18115645 88.88880408 -0.18249393 C92.47160646 -0.18354279 96.0542434 -0.18946757 99.63700485 -0.20731354 C103.63308167 -0.22683077 107.6287893 -0.22251001 111.62490845 -0.21600342 C112.81363052 -0.2252182 114.0023526 -0.23443298 115.22709656 -0.243927 C116.31513077 -0.23835785 117.40316498 -0.2327887 118.52416992 -0.22705078 C119.46917547 -0.22851734 120.41418102 -0.2299839 121.3878231 -0.2314949 C124.31498532 0.20377598 125.70007104 1.19821159 127.8890686 3.14044189 C127.5140686 5.57794189 127.5140686 5.57794189 126.8890686 8.14044189 C124.34969295 9.41012972 122.57713817 9.27200687 119.73344421 9.28088379 C118.64119034 9.28659393 117.54893646 9.29230408 116.42358398 9.29818726 C115.21989166 9.29930511 114.01619934 9.30042297 112.77603149 9.30157471 C111.51259415 9.30653961 110.2491568 9.31150452 108.94743347 9.31661987 C105.47638732 9.32975018 102.00536052 9.33618984 98.53429341 9.34063053 C96.36701588 9.34355974 94.19974366 9.34766422 92.0324688 9.3521347 C85.25522036 9.3658102 78.47798403 9.37547706 71.70072275 9.3793366 C63.87027671 9.38382012 56.04000498 9.40138131 48.20961195 9.43033719 C42.1611635 9.45192953 36.11276419 9.46203953 30.06427759 9.46337771 C26.44964969 9.46442735 22.83518564 9.47036866 19.22059822 9.48819733 C15.19079064 9.50768741 11.16134964 9.50339889 7.13150024 9.49688721 C5.92983215 9.50610199 4.72816406 9.51531677 3.49008179 9.52481079 C2.39500809 9.51924164 1.29993439 9.51367249 0.17167664 9.50793457 C-0.78162505 9.50940113 -1.73492674 9.51086769 -2.71711636 9.51237869 C-5.1109314 9.14044189 -5.1109314 9.14044189 -6.95281315 7.7815361 C-8.1109314 6.14044189 -8.1109314 6.14044189 -7.9234314 3.51544189 C-6.51369229 -0.60533396 -3.91363338 0.01232907 0 0 Z " fill="#60BCBB" transform="translate(424.1109313964844,320.85955810546875)"/>
<path d="M0 0 C2 2 2 2 2.00390625 4.91015625 C1 8 1 8 -1.59765625 9.87109375 C-2.74105469 10.38800781 -3.88445313 10.90492188 -5.0625 11.4375 C-5.68012207 11.72407471 -6.29774414 12.01064941 -6.93408203 12.3059082 C-8.94538865 13.23008323 -10.97001171 14.11768639 -13 15 C-14.40245299 15.61954445 -15.80479641 16.23933698 -17.20703125 16.859375 C-19.95342316 18.06763356 -22.70552159 19.26170735 -25.4609375 20.44921875 C-28.62239553 21.83453756 -31.68043472 23.31654803 -34.7421875 24.90234375 C-38.82917615 26.88927076 -43.0172991 28.65606909 -47.19140625 30.45117188 C-50.28934309 31.78878008 -53.31223565 33.15942385 -56.3203125 34.6953125 C-59.18933392 36.09218299 -60.8553598 36.43675558 -64 36 C-64.66 35.34 -65.32 34.68 -66 34 C-65.8002873 31.40373491 -65.47745281 29.62603078 -63.8828125 27.53515625 C-61.21632734 25.36103038 -58.21167105 24.18107241 -55.0625 22.875 C-53.61804288 22.25885868 -52.17405421 21.6416183 -50.73046875 21.0234375 C-49.96395996 20.69698242 -49.19745117 20.37052734 -48.40771484 20.03417969 C-44.21127792 18.23169471 -40.04168882 16.3700449 -35.875 14.5 C-35.0298584 14.12069336 -34.1847168 13.74138672 -33.31396484 13.35058594 C-27.13944166 10.55931398 -21.06842653 7.60661936 -15.04296875 4.5078125 C-4.61505315 -0.65929331 -4.61505315 -0.65929331 0 0 Z " fill="#3B3E3E" transform="translate(527,199)"/>
<path d="M0 0 C0.66 0 1.32 0 2 0 C3.31286427 4.33789538 4.61251573 8.67944985 5.90014648 13.02490234 C6.33990427 14.5022162 6.78323655 15.97847097 7.23022461 17.45361328 C7.87258369 19.57575617 8.50193709 21.70139189 9.12890625 23.828125 C9.33093155 24.48556702 9.53295685 25.14300903 9.74110413 25.82037354 C10.72435838 29.20407114 11.32890707 31.65748581 10 35 C7.60612843 35.67449966 5.21030779 36.33976641 2.8125 37 C2.13896484 37.19078125 1.46542969 37.3815625 0.77148438 37.578125 C-2.90555156 38.5825836 -6.1850182 39.23704741 -10 39 C-8.77175301 31.96549454 -6.95350015 25.24631396 -4.89892578 18.42041016 C-3.0711341 12.32550629 -1.46749555 6.19211536 0 0 Z " fill="#3D3D3D" transform="translate(514,381)"/>
<path d="M0 0 C1.32 0 2.64 0 4 0 C5.98 6.27 7.96 12.54 10 19 C11.65 13.06 13.3 7.12 15 1 C16.65 0.67 18.3 0.34 20 0 C20.84080019 2.41429769 21.67281402 4.83103993 22.5 7.25 C22.73847656 7.93191406 22.97695313 8.61382812 23.22265625 9.31640625 C24.39421287 12.76413003 25 15.31702904 25 19 C25.66 19 26.32 19 27 19 C27.27714844 17.87980469 27.55429687 16.75960938 27.83984375 15.60546875 C28.20566667 14.13279698 28.57155553 12.66014158 28.9375 11.1875 C29.11990234 10.44951172 29.30230469 9.71152344 29.49023438 8.95117188 C30.2422615 5.92939016 31.01485573 2.95543282 32 0 C33.32 0 34.64 0 36 0 C35.82984375 0.55945313 35.6596875 1.11890625 35.484375 1.6953125 C33.53622413 8.14079039 31.68534199 14.61040839 29.8671875 21.09375 C29 24 29 24 28 26 C26.68 26 25.36 26 24 26 C22.02 19.73 20.04 13.46 18 7 C16.20778238 11.77924698 14.5896127 16.13480876 13.3125 21 C13.06113281 21.94875 12.80976563 22.8975 12.55078125 23.875 C12.36902344 24.57625 12.18726563 25.2775 12 26 C10.35 26 8.7 26 7 26 C5.82898756 22.04293896 4.66392728 18.08415032 3.5 14.125 C3.16613281 12.99707031 2.83226562 11.86914062 2.48828125 10.70703125 C2.17246094 9.63066406 1.85664063 8.55429687 1.53125 7.4453125 C1.23798828 6.45031738 0.94472656 5.45532227 0.64257812 4.43017578 C0 2 0 2 0 0 Z " fill="#5EB8B6" transform="translate(248,474)"/>
<path d="M0 0 C4.29 0 8.58 0 13 0 C17 4 17 4 17.4375 7.5625 C17 11 17 11 15.6875 12.9375 C14 14 14 14 11 14 C11.75796875 15.15628906 11.75796875 15.15628906 12.53125 16.3359375 C13.1809375 17.33882813 13.830625 18.34171875 14.5 19.375 C15.1496875 20.37273437 15.799375 21.37046875 16.46875 22.3984375 C18 25 18 25 18 27 C15.67578125 26.77734375 15.67578125 26.77734375 13 26 C11.41796875 24.00390625 11.41796875 24.00390625 10.1875 21.5625 C9.55908203 20.35787109 9.55908203 20.35787109 8.91796875 19.12890625 C8 17 8 17 8 15 C6.35 15 4.7 15 3 15 C3 18.63 3 22.26 3 26 C2.01 26 1.02 26 0 26 C0 17.42 0 8.84 0 0 Z " fill="#5FB9B7" transform="translate(536,474)"/>
<path d="M0 0 C1.32 0 2.64 0 4 0 C5.67239921 3.95593578 7.33694382 7.9151284 9 11.875 C9.47695313 13.00292969 9.95390625 14.13085938 10.4453125 15.29296875 C11.12207031 16.90751953 11.12207031 16.90751953 11.8125 18.5546875 C12.23144531 19.54968262 12.65039062 20.54467773 13.08203125 21.56982422 C14 24 14 24 14 26 C12.68 26 11.36 26 10 26 C9.34 24.02 8.68 22.04 8 20 C3.71 20 -0.58 20 -5 20 C-5.66 22.31 -6.32 24.62 -7 27 C-8.32 27 -9.64 27 -11 27 C-10.43222096 22.02809708 -8.80135869 17.95164278 -6.625 13.5 C-6.16867187 12.54287109 -6.16867187 12.54287109 -5.703125 11.56640625 C-3.84735711 7.68832719 -1.9321484 3.84058946 0 0 Z " fill="#5FB7B5" transform="translate(644,474)"/>
<path d="M0 0 C1.32 0 2.64 0 4 0 C5.67557981 3.76693513 7.33891867 7.53915174 9 11.3125 C9.47695313 12.38435547 9.95390625 13.45621094 10.4453125 14.56054688 C11.12207031 16.10258789 11.12207031 16.10258789 11.8125 17.67578125 C12.23144531 18.62364502 12.65039062 19.57150879 13.08203125 20.5480957 C14 23 14 23 14 26 C12.68 26 11.36 26 10 26 C9.34 24.35 8.68 22.7 8 21 C3.71 20.67 -0.58 20.34 -5 20 C-5.66 21.98 -6.32 23.96 -7 26 C-8.32 25.67 -9.64 25.34 -11 25 C-7.37 16.75 -3.74 8.5 0 0 Z " fill="#5EB8B6" transform="translate(301,474)"/>
<path d="M0 0 C3.85761336 1.66205682 6.27094012 3.79546629 8.4375 7.375 C9.49207561 12.29635282 9.66495291 16.2355762 7.3125 20.75 C4.91129768 24.12466272 3.85095328 25.57682162 0 27 C-5.01810805 27.67244329 -8.82425936 27.55580467 -13.4375 25.375 C-17.36664148 21.73335668 -19.12217703 18.32997533 -19.4375 13 C-19.2674846 8.76580697 -17.72839737 6.25891908 -15 3 C-10.47461614 -1.09532578 -5.83077944 -0.88120537 0 0 Z M-14 8 C-15.01562197 11.08658298 -15.40341782 13.76697547 -15 17 C-13.34246674 20.12656275 -11.20643764 22.39678118 -8 24 C-5.03604618 24.40417552 -2.91095074 24.56382171 -0.30859375 22.953125 C1.88450678 21.15636794 3.7209562 19.55808759 5 17 C5.36187353 11.15532462 5.36187353 11.15532462 3 6 C0.40642313 3.20691721 -1.07757124 2.99014968 -4.9375 2.5 C-9.47561034 2.71166559 -11.42591009 4.17786649 -14 8 Z " fill="#5EB5B3" transform="translate(482,474)"/>
<path d="M0 0 C4.29 0 8.58 0 13 0 C17 4 17 4 17.5 7.5 C17 11 17 11 15.625 13.4375 C11.47360478 15.90856858 7.77353037 15.25123844 3 15 C3 18.63 3 22.26 3 26 C2.01 26 1.02 26 0 26 C0 17.42 0 8.84 0 0 Z " fill="#60BBB9" transform="translate(610,474)"/>
<path d="M0 0 C5.61 0 11.22 0 17 0 C17 1.32 17 2.64 17 4 C12.71 4 8.42 4 4 4 C4 6.31 4 8.62 4 11 C7.96 11 11.92 11 16 11 C16 12.32 16 13.64 16 15 C11.71 15 7.42 15 3 15 C3 17.64 3 20.28 3 23 C7.62 23 12.24 23 17 23 C17 23.99 17 24.98 17 26 C11.39 26 5.78 26 0 26 C0 17.42 0 8.84 0 0 Z " fill="#5DB2B0" transform="translate(702,474)"/>
<path d="M0 0 C3.3 0 6.6 0 10 0 C10 7.59 10 15.18 10 23 C6.7 23 3.4 23 0 23 C0 15.41 0 7.82 0 0 Z " fill="#5DB3B1" transform="translate(479,290)"/>
<path d="M0 0 C0.99 0 1.98 0 3 0 C3 3.63 3 7.26 3 11 C7.62 11 12.24 11 17 11 C17 7.37 17 3.74 17 0 C18.32 0 19.64 0 21 0 C21 8.91 21 17.82 21 27 C19.68 27 18.36 27 17 27 C17 22.71 17 18.42 17 14 C12.38 14 7.76 14 3 14 C3 17.96 3 21.92 3 26 C2.01 26 1.02 26 0 26 C0 17.42 0 8.84 0 0 Z " fill="#5EB7B5" transform="translate(384,474)"/>
<path d="M0 0 C1.04285156 -0.01933594 2.08570313 -0.03867187 3.16015625 -0.05859375 C5.9375 0.4375 5.9375 0.4375 7.80859375 2.46484375 C8.36740234 3.44130859 8.36740234 3.44130859 8.9375 4.4375 C7.9475 5.0975 6.9575 5.7575 5.9375 6.4375 C5.40125 6.1075 4.865 5.7775 4.3125 5.4375 C1.26556078 4.15457822 -0.78282701 4.02754088 -4.0625 4.4375 C-6.75589684 6.11177371 -7.78718084 7.4854286 -8.66796875 10.53125 C-9.3397654 14.52212119 -9.40016563 16.76216875 -7.5625 20.4375 C-4.35000397 23.00749683 -2.14371288 23.36329613 1.9375 23.4375 C2.9275 22.7775 3.9175 22.1175 4.9375 21.4375 C6.2575 21.4375 7.5775 21.4375 8.9375 21.4375 C8.625 23.3125 8.625 23.3125 7.9375 25.4375 C3.6712253 28.28168313 -0.05867288 27.93467513 -5.0625 27.4375 C-9.26212339 25.88546527 -11.27397276 23.38015066 -13.33203125 19.3984375 C-14.67174867 15.80197683 -14.55016893 13.27789281 -14.0625 9.4375 C-10.63889139 2.95709799 -7.39757342 0.00916676 0 0 Z " fill="#5EB4B2" transform="translate(681.0625,473.5625)"/>
<path d="M0 0 C1.32 0 2.64 0 4 0 C4.01458252 0.59014893 4.02916504 1.18029785 4.04418945 1.78833008 C4.11868844 4.46371229 4.21533995 7.13784892 4.3125 9.8125 C4.33505859 10.74126953 4.35761719 11.67003906 4.38085938 12.62695312 C4.41630859 13.51962891 4.45175781 14.41230469 4.48828125 15.33203125 C4.51446533 16.15421143 4.54064941 16.9763916 4.56762695 17.82348633 C5.0932669 20.46949432 5.86999405 21.38480685 8 23 C10.5 23.5 10.5 23.5 13 23 C15.13000595 21.38480685 15.9067331 20.46949432 16.43237305 17.82348633 C16.45855713 17.00130615 16.48474121 16.17912598 16.51171875 15.33203125 C16.54716797 14.43935547 16.58261719 13.54667969 16.61914062 12.62695312 C16.64169922 11.69818359 16.66425781 10.76941406 16.6875 9.8125 C16.72166016 8.87212891 16.75582031 7.93175781 16.79101562 6.96289062 C16.87348218 4.64204607 16.94263403 2.32157852 17 0 C17.99 0 18.98 0 20 0 C20.11660824 3.39554235 20.18738372 6.79056679 20.25 10.1875 C20.30027344 11.62706055 20.30027344 11.62706055 20.3515625 13.09570312 C20.45069252 20.25784723 20.45069252 20.25784723 18.109375 24.11328125 C14.91397949 26.97138501 12.4276377 27.53919452 8.09326172 27.46118164 C4.73232059 26.72070837 3.31163155 24.81091704 1.21289062 22.19677734 C-1.02270709 18.14768149 -0.62802419 14.06827687 -0.375 9.5625 C-0.34792969 8.64017578 -0.32085937 7.71785156 -0.29296875 6.76757812 C-0.22276119 4.5092348 -0.12452894 2.25588963 0 0 Z " fill="#5FB8B6" transform="translate(502,474)"/>
<path d="M0 0 C0.66 0.33 1.32 0.66 2 1 C1.34 2.32 0.68 3.64 0 5 C-0.66 4.67 -1.32 4.34 -2 4 C-3.99960012 3.960008 -6.00047242 3.95653201 -8 4 C-8.33 5.65 -8.66 7.3 -9 9 C-8.30132813 9.33773438 -7.60265625 9.67546875 -6.8828125 10.0234375 C-5.97273437 10.46945312 -5.06265625 10.91546875 -4.125 11.375 C-3.22007812 11.81585938 -2.31515625 12.25671875 -1.3828125 12.7109375 C1 14 1 14 3 16 C2.86250098 19.71247343 2.45759104 22.25641455 0.5 25.4375 C-3.2282024 27.7676265 -6.72024484 27.81668722 -11 27 C-13.5625 25 -13.5625 25 -15 23 C-13.68 22.34 -12.36 21.68 -11 21 C-10.34 21.66 -9.68 22.32 -9 23 C-6.5 23.33333333 -6.5 23.33333333 -4 23 C-1.78674336 21.24270411 -1.78674336 21.24270411 -1.9375 19.0625 C-3.62497232 15.78681843 -6.6791176 15.35086742 -10 14 C-13.04580613 11.7351698 -13.87258124 10.76451257 -14.5 7 C-14 4 -14 4 -12.625 1.625 C-8.62240148 -0.85279908 -4.59539817 -0.48836113 0 0 Z " fill="#5EB5B3" transform="translate(595,474)"/>
<path d="M0 0 C2.6875 2 2.6875 2 4 4 C2.02 4.99 2.02 4.99 0 6 C-0.33 5.34 -0.66 4.68 -1 4 C-6.88564534 3.44237023 -6.88564534 3.44237023 -12 6.0625 C-14.50122172 9.73616939 -14.54614532 11.63083745 -14 16 C-13.17881003 19.35941353 -12.71668543 20.56202557 -9.75 22.375 C-5.29351155 23.38783828 -1.33260418 22.16647036 3 21 C3 22.32 3 23.64 3 25 C-1.19426503 27.09713252 -5.38523801 28.01384922 -10 27 C-14.14909331 24.50406106 -17.16672082 21.51401761 -19 17 C-19.46612801 12.18334395 -19.52190197 9.98788587 -17.25 5.6875 C-12.16542315 -0.38574457 -7.74514219 -1.11652277 0 0 Z " fill="#5EB7B5" transform="translate(368,474)"/>
<path d="M0 0 C3.24519666 0.30406442 4.61900552 0.56280677 6.80078125 3.06640625 C7.29964844 3.89011719 7.79851562 4.71382813 8.3125 5.5625 C8.82425781 6.38878906 9.33601563 7.21507812 9.86328125 8.06640625 C10.23839844 8.70449219 10.61351562 9.34257812 11 10 C11.5775 9.278125 12.155 8.55625 12.75 7.8125 C14.83333333 5.20833333 16.91666667 2.60416667 19 0 C20.32 0.33 21.64 0.66 23 1 C22.36191406 1.88300781 21.72382813 2.76601563 21.06640625 3.67578125 C15.9492589 11.01532058 12.5259363 16.70835146 13 26 C11.68 26 10.36 26 9 26 C9.020625 25.27296875 9.04125 24.5459375 9.0625 23.796875 C8.89468176 15.6157356 6.58307011 10.91792517 1.71484375 4.3984375 C0 2 0 2 0 0 Z " fill="#5DB5B3" transform="translate(432,474)"/>
<path d="M0 0 C6.6 0 13.2 0 20 0 C20 0.99 20 1.98 20 3 C17.36 3 14.72 3 12 3 C12 10.92 12 18.84 12 27 C10.68 27 9.36 27 8 27 C8 19.08 8 11.16 8 3 C5.36 3 2.72 3 0 3 C0 2.01 0 1.02 0 0 Z " fill="#5DB4B2" transform="translate(320,474)"/>
<path d="M0 0 C7.39954511 -0.36391205 7.39954511 -0.36391205 10.0625 1.25 C11 3 11 3 10.8125 5.0625 C10 7 10 7 8 9 C5.31160615 9.26991906 2.70858064 9.08737357 0 9 C0 6.03 0 3.06 0 0 Z " fill="#3B4545" transform="translate(613,477)"/>
<path d="M0 0 C6.0546875 -0.1953125 6.0546875 -0.1953125 8 0 C10 2 10 2 10.25 4.5 C10 7 10 7 8 9 C5.31160615 9.26991906 2.70858064 9.08737357 0 9 C0 6.03 0 3.06 0 0 Z " fill="#383F3F" transform="translate(539,477)"/>
<path d="M0 0 C3.05936637 3.75467691 5 7.08113061 5 12 C2.03 12 -0.94 12 -4 12 C-3.52309796 10.37433394 -3.04340334 8.74948689 -2.5625 7.125 C-2.29566406 6.22007812 -2.02882813 5.31515625 -1.75390625 4.3828125 C-1 2 -1 2 0 0 Z " fill="#3A4040" transform="translate(645,479)"/>
<path d="M0 0 C3.58461028 3.18297328 4.46139573 6.53072093 6 11 C2.7 11 -0.6 11 -4 11 C-1.125 2.25 -1.125 2.25 0 0 Z " fill="#2F3434" transform="translate(302,480)"/>
</svg>
